<?xml version="1.0" encoding="UTF-8" standalone="no"?>
<svg width="481px" height="97px" viewBox="0 0 481 97" version="1.1" xmlns="http://www.w3.org/2000/svg" xmlns:xlink="http://www.w3.org/1999/xlink">
    <!-- Generator: Sketch 3.7 (28169) - http://www.bohemiancoding.com/sketch -->
    <title>forst</title>
    <desc>Created with Sketch.</desc>
    <defs></defs>
    <g id="Page-1" stroke="none" stroke-width="1" fill="none" fill-rule="evenodd">
        <g id="Desktop-Copy-8" transform="translate(-426.000000, -967.000000)">
            <g id="forst" transform="translate(426.000000, 967.000000)">
                <rect id="Rectangle-path" fill="#E7E7E7" x="401" y="71" width="69.9787449" height="24.8575569"></rect>
                <polygon id="Shape" fill="#CDCDCD" points="480.446574 64 407.586261 64.1903048 401 70.8216742 470.978745 70.8216742"></polygon>
                <polygon id="Shape" fill="#FFFFFF" points="480.467829 95.6794815 471 95.6794815 471 70.8216742 480.467829 64"></polygon>
                <polygon id="Shape" fill="#CDCDCD" points="365 33.3552385 382.012028 33.3552385 390.572442 19 375.573334 19"></polygon>
                <polygon id="Shape" fill="#E7E7E7" points="400.698292 96.5651395 390.999108 96.5651395 390.999108 19.2317978 376 19.2317978 376 1.13686838e-13 400.698292 1.13686838e-13"></polygon>
                <polygon id="Shape" fill="#FFFFFF" points="391.560414 19 383 33.3552385 383 96.3333416 391.560414 96.3333416"></polygon>
                <polygon id="Shape" fill="#FFFFFF" points="407.586261 -1.13686838e-13 401 -1.13686838e-13 401 71.7073322 407.586261 65.0759627"></polygon>
                <polygon id="Shape" fill="#CDCDCD" points="373.647571 16 233.807635 16 210 33.3077166 359.500853 33.3077166"></polygon>
                <rect id="Rectangle-path" fill="#E7E7E7" x="0" y="33" width="41.9914488" height="35.2699814"></rect>
                <rect id="Rectangle-path" fill="#CDCDCD" x="174" y="68" width="35.2716265" height="28.0892321"></rect>
                <rect id="Rectangle-path" fill="#E7E7E7" x="210" y="33" width="149.500603" height="63.3592135"></rect>
                <polygon id="Shape" fill="#E7E7E7" points="95.0265077 68 82.1286106 95.9582724 65.6630825 95.9582724 54 68 59.4885094 68 69.0613862 91.6583866 78.7325579 91.7405181 89.6340422 68.1211941"></polygon>
                <polygon id="Shape" fill="#FFFFFF" points="59 68 68.5728768 91.6583866 71.3493962 91.6819242 61.7442547 68"></polygon>
                <polygon id="Shape" fill="#FFFFFF" points="82 95.9582724 84.7442547 95.9582724 97.7797146 68 94.897897 68"></polygon>
                <rect id="Rectangle-path" fill="#FFFFFF" x="42" y="33" width="167.289486" height="35.2699814"></rect>
                <rect id="Rectangle-path" fill="#E7E7E7" x="359" y="33" width="23.4949921" height="62.9778528"></rect>
                <polygon id="Shape" fill="#FFFFFF" points="376.056048 19.3335884 373.146718 16 359 33.3077166 359.205594 96.6669301 365.071276 96.6669301 365.482714 33.6888269"></polygon>
            </g>
        </g>
    </g>
</svg>