<?xml version="1.0" encoding="UTF-8" standalone="no"?>
<svg width="304px" height="92px" viewBox="0 0 304 92" version="1.1" xmlns="http://www.w3.org/2000/svg" xmlns:xlink="http://www.w3.org/1999/xlink">
    <!-- Generator: Sketch 3.7 (28169) - http://www.bohemiancoding.com/sketch -->
    <title>hoil</title>
    <desc>Created with Sketch.</desc>
    <defs></defs>
    <g id="Page-1" stroke="none" stroke-width="1" fill="none" fill-rule="evenodd">
        <g id="Desktop-Copy-8" transform="translate(-200.000000, -408.000000)">
            <g id="EPOR_SHADOWS" transform="translate(49.000000, 351.000000)">
                <g id="Group">
                    <g id="hoil" transform="translate(151.166958, 57.268176)">
                        <polygon id="Shape" fill="#FFFFFF" points="0.393281906 91.5356186 48.6346233 91.5356186 48.6346233 22.1789809 35.1430962 11.5825507 0.171487762 22.7386889"></polygon>
                        <polygon id="Shape" fill="#EDEDED" points="35.1430962 11.5825507 48.6346233 21.8419833 138.808935 39.1307747 114.899774 0.12916329"></polygon>
                        <polygon id="Shape" fill="#F6F6F6" points="276.043008 48.59118 138.808935 39.1307747 114.899774 0.12916329 290.73941 38.7737783"></polygon>
                        <polygon id="Shape" fill="#FFFFFF" points="303.050844 91.4803337 276.25142 91.52 276.459833 48.59118 290.73941 38.7737783 303.050844 49.3349225"></polygon>
                        <polygon id="Shape" fill="#DBDBDB" points="138.808935 38.8855876 138.808935 91.52 276.25142 91.52 276.043008 48.59118"></polygon>
                        <polygon id="Shape" fill="#E3E3E3" points="48.6346233 21.8419833 48.6346233 91.52 138.808935 91.52 138.808935 38.8855876"></polygon>
                    </g>
                </g>
            </g>
        </g>
    </g>
</svg>