<svg width="481" height="97" viewBox="0 0 481 97" xmlns="http://www.w3.org/2000/svg"><title>forst</title><g id="Page-1" fill="none" fill-rule="evenodd"><g id="Desktop-Copy-8" transform="translate(-426 -967)"><g id="forst" transform="translate(426 967)"><path id="Rectangle-path" fill="#E7E7E7" d="M401 71h69.979v24.858H401z"/><path id="Shape" fill="#CDCDCD" d="M480.447 64l-72.86.19L401 70.822h69.979z"/><path id="Shape" fill="#FFF" d="M480.468 95.68H471V70.821L480.468 64z"/><path id="Shape" fill="#CDCDCD" d="M365 33.355h17.012L390.572 19h-14.999z"/><path id="Shape" fill="#E7E7E7" d="M400.698 96.565H391V19.232H376V0h24.698z"/><path id="Shape" fill="#FFF" d="M391.56 19L383 33.355v62.978h8.56zM407.586 0H401v71.707l6.586-6.631z"/><path id="Shape" fill="#CDCDCD" d="M373.648 16h-139.84L210 33.308h149.5z"/><path id="Rectangle-path" fill="#E7E7E7" d="M0 33h41.991v35.27H0z"/><path id="Rectangle-path" fill="#CDCDCD" d="M174 68h35.272v28.089H174z"/><path id="Rectangle-path" fill="#E7E7E7" d="M210 33h149.501v63.359H210z"/><path id="Shape" fill="#E7E7E7" d="M95.027 68L82.129 95.958H65.663L54 68h5.489l9.572 23.658 9.672.083 10.901-23.62z"/><path id="Shape" fill="#FFF" d="M59 68l9.573 23.658 2.776.024L61.744 68zM82 95.958h2.744L97.78 68h-2.882z"/><path id="Rectangle-path" fill="#FFF" d="M42 33h167.289v35.27H42z"/><path id="Rectangle-path" fill="#E7E7E7" d="M359 33h23.495v62.978H359z"/><path id="Shape" fill="#FFF" d="M376.056 19.334L373.146 16 359 33.308l.206 63.359h5.865l.412-62.978z"/></g></g></g></svg>