<svg width="104" height="163" viewBox="0 0 104 163" xmlns="http://www.w3.org/2000/svg"><title>st</title><g id="Page-1" fill="none" fill-rule="evenodd"><g id="Desktop-Copy-8" transform="translate(-903 -485)"><g id="st" transform="translate(903 485)"><path id="Shape" fill="#F5F5F5" d="M12.619 14.99L0 48.787l3.828 7.777L16.872 12z"/><path id="Shape" fill="#DFDFDF" d="M14.745 151.331l1.56-7.626L3.828 55.776 0 48l12.052 88.228z"/><path id="Shape" fill="#FFF" d="M17.044 11.216L51.781 0v44.862L4 55.778z"/><path id="Shape" fill="#F4F4F4" d="M16.476 143.846l35.305 9.922V45L4 55.917z"/><path id="Shape" fill="#ECECEC" d="M15 151.626l36.864 10.446v-8.15L16.56 144z"/><path id="Shape" fill="#EBEBEB" d="M90.753 13.99l12.617 33.796-3.828 7.777L86.5 11z"/><path id="Shape" fill="#F5F5F5" d="M88.56 151.331L87 143.705l12.476-87.929L103.305 48l-12.052 88.228z"/><path id="Shape" fill="#F4F4F4" d="M86.737 11.216L52 0v44.862l47.78 10.916z"/><path id="Shape" fill="#DFDFDF" d="M87.304 143.846L52 153.768V45l47.78 10.917z"/><path id="Shape" fill="#D6D6D6" d="M88.864 151.626L52 162.072v-8.15L87.304 144z"/></g></g></g></svg>