<?xml version="1.0" encoding="UTF-8" standalone="no"?>
<svg width="104px" height="163px" viewBox="0 0 104 163" version="1.1" xmlns="http://www.w3.org/2000/svg" xmlns:xlink="http://www.w3.org/1999/xlink">
    <!-- Generator: Sketch 3.7 (28169) - http://www.bohemiancoding.com/sketch -->
    <title>st</title>
    <desc>Created with Sketch.</desc>
    <defs></defs>
    <g id="Page-1" stroke="none" stroke-width="1" fill="none" fill-rule="evenodd">
        <g id="Desktop-Copy-8" transform="translate(-903.000000, -485.000000)">
            <g id="st" transform="translate(903.000000, 485.000000)">
                <polygon id="Shape" fill="#F5F5F5" points="12.6186775 14.9905211 6.75015599e-14 48.7864086 3.82811505 56.5625055 16.8722038 12"></polygon>
                <polygon id="Shape" fill="#DFDFDF" points="14.7448542 151.331146 16.3045978 143.704714 3.82811505 55.7760969 0 48 12.0516579 136.228257"></polygon>
                <polygon id="Shape" fill="#FFFFFF" points="17.0440887 11.2159228 51.7806339 0 51.7806339 44.8615267 4 55.7784283"></polygon>
                <polygon id="Shape" fill="#F4F4F4" points="16.4764828 143.845519 51.7806339 153.767641 51.7806339 45 4 55.9169016"></polygon>
                <polygon id="Shape" fill="#ECECEC" points="15 151.626432 51.8638947 162.071764 51.8638947 153.922123 16.5597436 144"></polygon>
                <polygon id="Shape" fill="#EBEBEB" points="90.7527517 13.9905211 103.370001 47.7864086 99.5423191 55.5625055 86.5 11"></polygon>
                <polygon id="Shape" fill="#F5F5F5" points="88.5597436 151.331146 87 143.704714 99.4764828 55.7760969 103.304598 48 91.2529399 136.228257"></polygon>
                <polygon id="Shape" fill="#F4F4F4" points="86.7365452 11.2159228 52 0 52 44.8615267 99.7803407 55.7784283"></polygon>
                <polygon id="Shape" fill="#DFDFDF" points="87.303858 143.845519 52 153.767641 52 45 99.7803407 55.9169016"></polygon>
                <polygon id="Shape" fill="#D6D6D6" points="88.8636015 151.626432 52 162.071764 52 153.922123 87.303858 144"></polygon>
            </g>
        </g>
    </g>
</svg>