<svg width="28" height="28" viewBox="0 0 28 28" xmlns="http://www.w3.org/2000/svg"><title>close</title><g id="Page-1" fill="none" fill-rule="evenodd"><g id="Desktop-Copy-13" transform="translate(-1157 -24)" fill="#000"><g id="noun_149007_cc-copy" transform="translate(1157 24)"><g id="Group"><g id="close"><path d="M26.59 28c-.282 0-.566-.11-.781-.327L.628 2.215a1.126 1.126 0 0 1 0-1.58 1.097 1.097 0 0 1 1.563 0l25.181 25.457a1.126 1.126 0 0 1 0 1.58c-.216.22-.499.328-.782.328z" id="Shape"/><path d="M1.41 28c-.283 0-.566-.11-.782-.327a1.126 1.126 0 0 1 0-1.58L25.808.634a1.097 1.097 0 0 1 1.564 0 1.126 1.126 0 0 1 0 1.58L2.192 27.673A1.095 1.095 0 0 1 1.41 28z" id="Shape"/></g></g></g></g></g></svg>